# xmcd CD database file
#
# Track frame offsets:
#	150
#	11268
#	22533
#	35724
#	48252
#	57387
#	67905
#	82941
#	94014
#	107277
#	117540
#	129918
#	142578
#	153606
#	165711
#	177988
#	188340
#	198689
#
# Disc length: 2798 seconds
#
# Revision: 0
# Processed by: cddbd v1.5.1PL0 Copyright (c) Steve Scherf et al.
# Submitted via: CDex 1.51
#
DISCID=d60aec12
DTITLE=Various Artist - Country Volume 3
DYEAR=1900
DGENRE=Country
TTITLE0=Don Gibson - Oh Lonesome Me
TTITLE1=Buck Owens - Open Up Your Heart
TTITLE2=Lynn Anderson - Rose Garden
TTITLE3=Kenny Rogers - Reuben James
TTITLE4=Frankie Lane - Rawhide
TTITLE5=Buck Owens - The Kansas City Song
TTITLE6=Boxcar Willie - Train Medley
TTITLE7=Roger Miller - King Of The Road
TTITLE8=Conway Twitty - Danny Boy
TTITLE9=Ferly Husky - Wings Of A Dove
TTITLE10=Merle Haggard - If We Make It Through December
TTITLE11=Alabama - I Go On Loving You
TTITLE12=Buck Owens - My Heart Skips A Beat
TTITLE13=Waylon Jennings - Don't Think Twice, It's Allright
TTITLE14=Dolly Parton - Two Little Orphans
TTITLE15=Patsy Cline - Crazy
TTITLE16=Buck Owens - Rollin'In My Sweet Baby's Arms
TTITLE17=Dave Duddley - Cowboys Boots
EXTD=
EXTT0=
EXTT1=
EXTT2=
EXTT3=
EXTT4=
EXTT5=
EXTT6=
EXTT7=
EXTT8=
EXTT9=
EXTT10=
EXTT11=
EXTT12=
EXTT13=
EXTT14=
EXTT15=
EXTT16=
EXTT17=
PLAYORDER=
